# xmcd
#
# Track frame offsets: 
#        150
#        17754
#        36524
#        55697
#        86276
#        104308
#        126368
#        156327
#        178827
#        210776
#        233128
#        251566
#        271147
#        277929
#
# Disc length: 3897 seconds
#
# Revision: 0
# Processed by: cddbd v1.5.2PL0 Copyright (c) Steve Scherf et al.
# Submitted via: ExactAudioCopy v0.99pb3
#
DISCID=b60f370e
DTITLE=Moore Gary - Ballads and Blues
DYEAR=1994
DGENRE=
TTITLE0=Always Gonna Love You
TTITLE1=Never Got The Blues
TTITLE2=Empty Rooms
TTITLE3=Parisienne Walkways
TTITLE4=One Day
TTITLE5=Separate Ways
TTITLE6=Story Of The Blues
TTITLE7=Crying In The Shadows
TTITLE8=With Love
TTITLE9=Midnight Blues
TTITLE10=Falling In Love With You
TTITLE11=Jumpin At Shadows
TTITLE12=Blues For Narada
TTITLE13=Johnny Boy
EXTD=
EXTT0=
EXTT1=
EXTT2=
EXTT3=
EXTT4=
EXTT5=
EXTT6=
EXTT7=
EXTT8=
EXTT9=
EXTT10=
EXTT11=
EXTT12=
EXTT13=
PLAYORDER=
